<svg width="1200" height="800" viewBox="0 0 1200 800" fill="none" xmlns="http://www.w3.org/2000/svg">
  <defs>
    <linearGradient id="g1" x1="0" y1="0" x2="1200" y2="800" gradientUnits="userSpaceOnUse">
      <stop stop-color="#111827"/>
      <stop offset="0.55" stop-color="#115E59"/>
      <stop offset="1" stop-color="#14B8A6"/>
    </linearGradient>
    <linearGradient id="g2" x1="340" y1="190" x2="860" y2="610" gradientUnits="userSpaceOnUse">
      <stop stop-color="#ECFDF5"/>
      <stop offset="1" stop-color="#D1FAE5"/>
    </linearGradient>
  </defs>
  <rect width="1200" height="800" rx="48" fill="url(#g1)"/>
  <circle cx="1000" cy="140" r="190" fill="#FFFFFF" fill-opacity="0.08"/>
  <circle cx="150" cy="640" r="240" fill="#34D399" fill-opacity="0.14"/>
  <rect x="260" y="170" width="680" height="470" rx="36" fill="#0F172A" fill-opacity="0.32" stroke="#FFFFFF" stroke-opacity="0.12"/>
  <path d="M390 520L525 260H675L810 520H390Z" fill="url(#g2)"/>
  <rect x="470" y="295" width="210" height="32" rx="16" fill="#0F766E"/>
  <rect x="430" y="430" width="340" height="22" rx="11" fill="#0F766E"/>
  <rect x="450" y="465" width="300" height="18" rx="9" fill="#0F766E" opacity="0.7"/>
  <rect x="560" y="345" width="50" height="145" rx="25" fill="#14B8A6"/>
  <circle cx="575" cy="365" r="9" fill="#ECFDF5"/>
  <circle cx="595" cy="390" r="9" fill="#ECFDF5"/>
  <circle cx="575" cy="415" r="9" fill="#ECFDF5"/>
  <text x="600" y="690" text-anchor="middle" fill="#F8FAFC" font-family="Inter, Arial, sans-serif" font-size="64" font-weight="700">Lab Space</text>
  <text x="600" y="744" text-anchor="middle" fill="#CCFBF1" font-family="Inter, Arial, sans-serif" font-size="28" font-weight="500">Hands-on learning and experiments</text>
</svg>
