<svg width="1200" height="800" viewBox="0 0 1200 800" fill="none" xmlns="http://www.w3.org/2000/svg">
  <defs>
    <linearGradient id="g1" x1="0" y1="0" x2="1200" y2="800" gradientUnits="userSpaceOnUse">
      <stop stop-color="#1F2937"/>
      <stop offset="0.55" stop-color="#7C3AED"/>
      <stop offset="1" stop-color="#C084FC"/>
    </linearGradient>
    <linearGradient id="g2" x1="320" y1="230" x2="880" y2="610" gradientUnits="userSpaceOnUse">
      <stop stop-color="#FAF5FF"/>
      <stop offset="1" stop-color="#E9D5FF"/>
    </linearGradient>
  </defs>
  <rect width="1200" height="800" rx="48" fill="url(#g1)"/>
  <circle cx="980" cy="150" r="190" fill="#FFFFFF" fill-opacity="0.08"/>
  <circle cx="180" cy="640" r="220" fill="#A855F7" fill-opacity="0.14"/>
  <rect x="210" y="160" width="780" height="470" rx="36" fill="#111827" fill-opacity="0.28" stroke="#FFFFFF" stroke-opacity="0.12"/>
  <rect x="350" y="235" width="500" height="270" rx="30" fill="url(#g2)"/>
  <rect x="410" y="295" width="130" height="18" rx="9" fill="#6D28D9"/>
  <rect x="410" y="325" width="280" height="16" rx="8" fill="#A78BFA"/>
  <rect x="410" y="355" width="220" height="16" rx="8" fill="#A78BFA"/>
  <circle cx="505" cy="430" r="58" fill="#7C3AED" fill-opacity="0.9"/>
  <circle cx="640" cy="430" r="58" fill="#8B5CF6" fill-opacity="0.9"/>
  <rect x="474" y="473" width="62" height="78" rx="20" fill="#4C1D95"/>
  <rect x="609" y="473" width="62" height="78" rx="20" fill="#4C1D95"/>
  <text x="600" y="690" text-anchor="middle" fill="#F8FAFC" font-family="Inter, Arial, sans-serif" font-size="64" font-weight="700">Meeting Room</text>
  <text x="600" y="744" text-anchor="middle" fill="#E9D5FF" font-family="Inter, Arial, sans-serif" font-size="28" font-weight="500">Collaboration and discussion space</text>
</svg>
