<svg width="1200" height="800" viewBox="0 0 1200 800" fill="none" xmlns="http://www.w3.org/2000/svg">
  <defs>
    <linearGradient id="g1" x1="0" y1="0" x2="1200" y2="800" gradientUnits="userSpaceOnUse">
      <stop stop-color="#0F172A"/>
      <stop offset="0.55" stop-color="#B45309"/>
      <stop offset="1" stop-color="#F59E0B"/>
    </linearGradient>
    <linearGradient id="g2" x1="300" y1="220" x2="900" y2="620" gradientUnits="userSpaceOnUse">
      <stop stop-color="#FFFBEB"/>
      <stop offset="1" stop-color="#FEF3C7"/>
    </linearGradient>
  </defs>
  <rect width="1200" height="800" rx="48" fill="url(#g1)"/>
  <circle cx="1000" cy="160" r="180" fill="#FFFFFF" fill-opacity="0.08"/>
  <circle cx="150" cy="640" r="220" fill="#F59E0B" fill-opacity="0.14"/>
  <rect x="220" y="180" width="760" height="440" rx="36" fill="#111827" fill-opacity="0.28" stroke="#FFFFFF" stroke-opacity="0.12"/>
  <rect x="350" y="285" width="500" height="30" rx="15" fill="#78350F"/>
  <rect x="380" y="315" width="24" height="145" rx="12" fill="#92400E"/>
  <rect x="796" y="315" width="24" height="145" rx="12" fill="#92400E"/>
  <rect x="405" y="350" width="390" height="125" rx="24" fill="url(#g2)"/>
  <rect x="455" y="380" width="120" height="18" rx="9" fill="#D97706"/>
  <rect x="455" y="410" width="250" height="18" rx="9" fill="#FBBF24"/>
  <rect x="455" y="440" width="180" height="18" rx="9" fill="#FBBF24"/>
  <text x="600" y="690" text-anchor="middle" fill="#F8FAFC" font-family="Inter, Arial, sans-serif" font-size="64" font-weight="700">Workshop</text>
  <text x="600" y="744" text-anchor="middle" fill="#FEF3C7" font-family="Inter, Arial, sans-serif" font-size="28" font-weight="500">Creative and practical workspace</text>
</svg>
